# xmcd
#
# Track frame offsets:
# 150
# 17207
# 35215
# 53675
# 67072
# 88920
# 106387
# 127312
# 144717
# 156722
# 171300
# 186777
#
# Disc length: 2742 seconds
#
#
# Revision: 3
# Processed by: cddbd v1.5.2PL0 Copyright (c) Steve Scherf et al.
# Submitted via: FreeRIP 2.944 
#
DISCID=bf0ab40c
DTITLE=Gipsy Kings - Este Mundo
DYEAR=1989
DGENRE=Latin
TTITLE0=Baila Me
TTITLE1=Sin Ella
TTITLE2=Habla Me
TTITLE3=Lagrimas
TTITLE4=Oy
TTITLE5=Mi Vida
TTITLE6=El Mauro
TTITLE7=No Volvere
TTITLE8=Furia
TTITLE9=Oh Mai
TTITLE10=Ternuras
TTITLE11=Este Mundo
EXTD=
EXTT0=
EXTT1=
EXTT2=
EXTT3=
EXTT4=
EXTT5=
EXTT6=
EXTT7=
EXTT8=
EXTT9=
EXTT10=
EXTT11=
PLAYORDER=
